<?xml version="1.0" encoding="UTF-8" standalone="no"?>
<!DOCTYPE svg PUBLIC "-//W3C//DTD SVG 1.1//EN" "http://www.w3.org/Graphics/SVG/1.1/DTD/svg11.dtd">
<svg version="1.1" xmlns="http://www.w3.org/2000/svg" xmlns:xlink="http://www.w3.org/1999/xlink" preserveAspectRatio="xMidYMid meet" viewBox="240.62239170053482 282.98237966832585 101.02533624260457 99.74682032044768" width="97.03" height="95.75"><defs><path d="M285.21 376.71C283.92 376.23 283.27 374.79 283.75 373.51C284.24 372.22 285.67 371.57 286.96 372.05C286.96 372.05 286.96 372.05 286.96 372.05C301.38 377.38 317.55 374.69 329.47 364.98C311.2 365.17 293.32 356.53 284.42 342.67C278.7 333.76 276.83 323.28 279.01 312.35C280.68 304.43 284.11 296.98 289.04 290.56C269.64 296.73 257.19 315.62 259.16 335.88C259.3 337.25 258.31 338.47 256.94 338.61C255.57 338.75 254.35 337.76 254.21 336.39C254.21 336.38 254.21 336.38 254.21 336.37C251.7 310.67 269.92 287.56 295.51 284.01C296.87 283.82 298.13 284.77 298.31 286.13C298.42 286.89 298.17 287.67 297.62 288.22C284.9 301.14 277.17 322.16 288.61 339.98C297.63 354.04 317.04 362.08 335.83 359.54C337.19 359.36 338.44 360.31 338.63 361.67C338.72 362.39 338.5 363.12 338.02 363.66C328.82 373.9 315.7 379.75 301.93 379.73C296.22 379.73 290.56 378.71 285.21 376.71Z" id="apmIOrAgs"></path><path d="M241.62 361.48C241.62 351.4 249.79 343.24 259.87 343.24C269.95 343.24 278.12 351.4 278.12 361.48C278.1 371.56 269.94 379.72 259.87 379.73C249.79 379.73 241.62 371.56 241.62 361.48ZM246.6 361.48C246.6 368.81 252.54 374.75 259.87 374.75C267.2 374.75 273.14 368.81 273.14 361.48C273.13 354.16 267.19 348.22 259.87 348.21C252.54 348.21 246.6 354.15 246.6 361.48Z" id="a2u3C7Adef"></path></defs><g><g><use xlink:href="#apmIOrAgs" opacity="1" fill="#f7c648" fill-opacity="1"></use><g><use xlink:href="#apmIOrAgs" opacity="1" fill-opacity="0" stroke="#000000" stroke-width="1" stroke-opacity="0"></use></g></g><g><use xlink:href="#a2u3C7Adef" opacity="1" fill="#f7c648" fill-opacity="1"></use><g><use xlink:href="#a2u3C7Adef" opacity="1" fill-opacity="0" stroke="#000000" stroke-width="1" stroke-opacity="0"></use></g></g></g></svg>