<svg id="visual" viewBox="0 0 960 540" width="960" height="540" xmlns="http://www.w3.org/2000/svg" xmlns:xlink="http://www.w3.org/1999/xlink" version="1.1"><path d="M0 463L137 478L274 465L411 476L549 461L686 460L823 483L960 482L960 541L823 541L686 541L549 541L411 541L274 541L137 541L0 541Z" fill="#f5730a"></path><path d="M0 487L137 490L274 504L411 503L549 503L686 489L823 506L960 481L960 541L823 541L686 541L549 541L411 541L274 541L137 541L0 541Z" fill="#be4207"></path><path d="M0 502L137 517L274 515L411 523L549 523L686 504L823 523L960 506L960 541L823 541L686 541L549 541L411 541L274 541L137 541L0 541Z" fill="#850e00"></path></svg>