<svg
				id="sun"
				data-name="Layer 1"
				xmlns="http://www.w3.org/2000/svg"
				
				viewBox="60 100 200 200"
			>
	
				<path
					d="M385.93382,228.751A4.31388,4.31388,0,0,1,381.62,224.4372V211.49569a4.31384,4.31384,0,0,1,8.62767,0V224.4372A4.3138,4.3138,0,0,1,385.93382,228.751Z"
					transform="translate(-215.49926 -64.18186)"
					fill="#f7c648"
				/>
				<path
					d="M385.93382,327.96926a4.31379,4.31379,0,0,1-4.31384-4.31384v-12.9415a4.31384,4.31384,0,1,1,8.62767,0v12.9415A4.31371,4.31371,0,0,1,385.93382,327.96926Z"
					transform="translate(-215.49926 -64.18186)"
					fill="#f7c648"
				/>
				<path
					d="M416.43793,241.38515a4.31391,4.31391,0,0,1-3.05028-7.36425l9.15084-9.15071a4.31384,4.31384,0,0,1,6.10056,6.10082l-9.15084,9.15071A4.3008,4.3008,0,0,1,416.43793,241.38515Z"
					transform="translate(-215.49926 -64.18186)"
					fill="#f7c648"
				/>
				<path
					d="M346.27886,311.54435a4.31391,4.31391,0,0,1-3.05041-7.36412l9.15071-9.15084A4.31384,4.31384,0,0,1,358.48,301.13l-9.15071,9.15084A4.30087,4.30087,0,0,1,346.27886,311.54435Z"
					transform="translate(-215.49926 -64.18186)"
					fill="#f7c648"
				/>
				<path
					d="M442.01368,271.88939H429.07217a4.31384,4.31384,0,0,1,0-8.62767h12.94151a4.31384,4.31384,0,1,1,0,8.62767Z"
					transform="translate(-215.49926 -64.18186)"
					fill="#f7c648"
				/>
				<path
					d="M342.79546,271.88939H329.854a4.31384,4.31384,0,1,1,0-8.62767h12.94151a4.31384,4.31384,0,0,1,0,8.62767Z"
					transform="translate(-215.49926 -64.18186)"
					fill="#f7c648"
				/>
				<path
					d="M425.58877,311.54435a4.30035,4.30035,0,0,1-3.05028-1.26356L413.38765,301.13a4.31375,4.31375,0,1,1,6.10056-6.10056l9.15084,9.15084a4.31384,4.31384,0,0,1-3.05028,7.36412Z"
					transform="translate(-215.49926 -64.18186)"
					fill="#f7c648"
				/>
				<path
					d="M355.42957,241.38515a4.29985,4.29985,0,0,1-3.05028-1.26356l-9.15084-9.15058a4.31393,4.31393,0,0,1,6.10082-6.10082l9.15058,9.15084a4.31384,4.31384,0,0,1-3.05028,7.36412Z"
					transform="translate(-215.49926 -64.18186)"
					fill="#f7c648"
				/>
				<path
					d="M385.93382,293.45857a25.883,25.883,0,1,1,25.883-25.883A25.91233,25.91233,0,0,1,385.93382,293.45857Zm0-43.13835a17.25534,17.25534,0,1,0,17.25534,17.25534A17.27494,17.27494,0,0,0,385.93382,250.32022Z"
					transform="translate(-215.49926 -64.18186)"
					fill="#f7c648"
				/>
			</svg>